<svg width="64" height="24" fill="none" xmlns="http://www.w3.org/2000/svg"><path fill-rule="evenodd" clip-rule="evenodd" d="M26.354 9.721c-.461-.972-.904-1.906-1.58-2.781.004-.075.143-.207.347-.4.582-.553 1.69-1.606 1.69-3.255 0-1.293-.815-2.585-2.054-3.044-4.244-1.53-6.841 4.642-3.09 6.512l.085.238c-.346.466-.93 1.654-1.392 2.598-.331.675-.601 1.224-.679 1.295a2.951 2.951 0 01-.238-.204c-2.224-2.431-4.55-4.37-8.063-4.37-.747 0-2.19.256-2.92.477-.288-.112-.494-.82-.75-1.699-.485-1.666-1.15-3.946-2.883-3.946-2.105 0-3.209 5.458-3.497 7.124-.12.702-.244 1.405-.37 2.11-.265 1.497-.531 3-.75 4.503-.29 2.024-.391 3.809.44 5.662.306.68 1.953 1.836 2.7 1.853 4.804 1.224 11.034.425 15.194-2.21.052.022.23.256.444.535.274.359.604.79.795.944 1.97 1.564 5.398 1.07 7.367-.187 1.732 1.054 4.414 1.802 6.129.238a2.72 2.72 0 00.264-.298c.254-.313.577-.71.856-.637l3.718 1.445c1.874.492 2.984.386 4.687.223l.559-.053c.03-.005.399.056.928.145 1.223.204 3.304.552 4.063.552 3.7 0 9.082-1.071 10.49-5.015 1.002-2.755.34-5.9-1.323-8.314 2.495.51 5.296-1.496 6.213-3.893.747-1.955-.136-3.655-1.935-4.42-2.53-1.072-6.536.254-7.606 3.026a3.372 3.372 0 00-.101 2.227 7.85 7.85 0 00-3.43-.901c-3.989-.12-8.25 3.876-9.982 7.191-.305.57-.48 1.132-.657 1.704-.11.351-.22.706-.361 1.067a.923.923 0 01-.128.238 1.99 1.99 0 00-.076.12c-.424-.086-3.395-1.769-3.395-1.99 0-.158.67-.87 1.484-1.736 1.023-1.088 2.274-2.418 2.709-3.194 1.002-1.768-.968-2.414-1.901-1.904-.012.004-.18.094-.446.238-.858.464-2.753 1.487-3.866 2.006-.127-.458-.283-1.412-.403-2.148a65.89 65.89 0 00-.107-.64c-.22-1.258-.509-2.431-.984-3.621-.34-.867-1.036-1.905-2.071-1.905-1.952 0-2.87 3.979-3.124 5.458a20.3 20.3 0 00-.086.586c-.145 1.026-.412 2.918-.627 3.052a74.091 74.091 0 01-.286-.6l-.001-.002zm33.159-4.744l-.146.114c-.06.05-.12.098-.182.147-.218.175-.436.35-.578.555.471-.052.943-.105 1.415-.175.35-.053.715.07.684.439-.03.351-.38.562-.715.632-.654.106-1.293.158-1.917.14-.334-.017-.578-.228-.639-.526a1.282 1.282 0 01.061-.668c.06-.193.167-.386.29-.562.273-.369.623-.668.988-.966.075-.05.142-.107.212-.168l.092-.078c.122-.106.244-.246.244-.387 0-.175-.152-.228-.32-.193-.228.047-.373.203-.52.36l-.058.062c-.137.123-.289.246-.471.298-.244.07-.396-.07-.335-.28.06-.159.182-.317.32-.44a2.542 2.542 0 011.17-.632c.685-.159 1.446 0 1.553.667.045.316-.107.65-.32.914-.235.286-.536.52-.828.747zm-8.757 7.038c-1.114 0-6.612 5.184-.928 5.184 4.655 0 1.956-5.184.928-5.184zm-37.47-.233c-1.252 0-7.895 5.183-1.08 5.183 5.407 0 2.334-5.183 1.08-5.183z" fill="#fff"/></svg>