<?xml version="1.0" encoding="UTF-8" standalone="yes"?>
<svg version="1.1" id="Calque_1" xmlns="http://www.w3.org/2000/svg" xmlns:xlink="http://www.w3.org/1999/xlink" x="0px" y="0px" viewBox="0 0 210 210" style="enable-background:new 0 0 210 210;" xml:space="preserve" width="210" height="210">
  <style type="text/css">&#xD;
	.st0{fill:none;stroke:#000000;}&#xD;
</style>
  <g>
    <path class="st0" d="M51.1,192.2c-11.2-9.3-18-22.1-20.6-38.5l21.9-8.9c1.4,11.7,5.8,21.2,13,28.5c7.2,7.3,16.9,11,28.9,11&#xD;&#xA;&#x9;&#x9;c7.4,0,14.5-1.6,21.2-4.7c6.8-3.2,12.3-7.6,16.5-13.4c4.2-5.8,6.4-12.4,6.4-20c0-8.1-2.8-14.8-8.2-20.2&#xD;&#xA;&#x9;&#x9;c-5.5-5.3-14.4-10.2-26.6-14.7l-11.6-4.3C80.5,102.6,71.2,96.5,64,88.8C56.8,81,53.2,71,53.2,58.7c0-10.5,2.9-19.8,8.8-28.1&#xD;&#xA;&#x9;&#x9;c5.9-8.3,13.7-14.8,23.5-19.6c9.8-4.8,20.5-7.2,32.1-7.2c11.7,0,21.6,2.1,29.8,6.4c8.1,4.2,14.3,9.4,18.5,15.6&#xD;&#xA;&#x9;&#x9;c4.2,6.1,6.8,12.2,7.7,18.1L151.4,52c-1.3-6.9-4.7-12.9-10.3-18.3c-5.6-5.3-14-8-25.2-8c-11,0-20.2,2.8-27.7,8.5&#xD;&#xA;&#x9;&#x9;C80.8,39.9,77,47.5,77,56.9c0,7.4,2.5,13.5,7.6,18.4c5,4.9,12.5,9.2,22.4,13l11.6,4.3c29,10.8,43.5,27.6,43.5,50.3&#xD;&#xA;&#x9;&#x9;c0,12.6-3.1,23.7-9.2,33.3c-6.1,9.6-14.6,17-25.3,22.2c-10.7,5.2-22.8,7.8-36.1,7.8C75.8,206.1,62.2,201.5,51.1,192.2z"/>
  </g>
</svg>